<?xml version="1.0" standalone="no"?>
<svg xmlns="http://www.w3.org/2000/svg" width="24" height="24"><rect width="24" height="24" opacity="0"></rect><g><path d="M19.42 14.45Q20.42 14.45 21.32 13.98Q22.22 13.51 22.8 12.7Q22.99 12.36 22.99 11.99Q22.99 11.62 22.8 11.3Q22.22 10.49 21.32 10.02Q20.42 9.55 19.42 9.55L14.42 9.55L8.66 1.37Q8.54 1.2 8.38 1.1Q8.21 1.01 8.02 1.01L7.06 1.01Q6.74 1.01 6.56 1.26Q6.38 1.51 6.48 1.8L9.07 9.55L3.5 9.55L2.04 7.97Q1.87 7.78 1.62 7.78Q1.37 7.78 1.19 7.94Q1.01 8.11 1.01 8.38L1.01 15.7Q1.01 15.96 1.19 16.12Q1.37 16.27 1.61 16.28Q1.85 16.3 2.04 16.1L3.67 14.45L9.1 14.45L6.5 22.2Q6.43 22.39 6.49 22.57Q6.55 22.75 6.71 22.86Q6.86 22.97 7.08 22.97L8.02 22.97Q8.21 22.97 8.39 22.88Q8.57 22.8 8.66 22.63L14.42 14.45L17.71 14.45L19.42 14.45Z" fill="rgba(0,0,0,0.9019607843137255)"></path></g></svg>