<?xml version="1.0" standalone="no"?>
<svg xmlns="http://www.w3.org/2000/svg" width="24" height="24"><rect width="24" height="24" opacity="0"></rect><g><path d="M5.33 21.67Q5.9 21.67 6.86 21.31Q7.82 20.95 8.78 20.45L9.1 20.28Q9.43 20.11 9.53 20.11Q10.7 20.35 12 20.35Q14.76 20.35 17.09 19.14Q19.42 17.93 20.78 15.86Q22.15 13.8 22.15 11.35Q22.15 8.9 20.78 6.83Q19.42 4.75 17.09 3.54Q14.76 2.33 12 2.33Q9.24 2.33 6.91 3.54Q4.58 4.75 3.22 6.83Q1.85 8.9 1.85 11.35Q1.85 13.25 2.71 15Q3.58 16.75 5.16 18.02Q5.47 18.26 5.3 18.89Q5.14 19.51 4.73 20.47L4.66 20.64Q4.49 21 4.7 21.34Q4.92 21.67 5.33 21.67ZM12 3.82Q14.35 3.82 16.33 4.84Q18.31 5.86 19.48 7.58Q20.64 9.31 20.64 11.35Q20.64 13.39 19.48 15.12Q18.31 16.85 16.33 17.86Q14.35 18.86 12 18.86Q10.92 18.86 9.86 18.65Q9.48 18.55 9.1 18.66Q8.71 18.77 8.23 19.06Q8.16 19.08 8.09 19.13L7.99 19.18Q7.68 19.32 7.34 19.48Q7.01 19.63 6.6 19.8Q6.89 18.89 6.82 18.12Q6.74 17.35 6.1 16.85Q4.78 15.79 4.06 14.35Q3.34 12.91 3.34 11.35Q3.34 9.31 4.5 7.58Q5.66 5.86 7.66 4.84Q9.65 3.82 12 3.82Z" fill="rgba(0,0,0,0.9019607843137255)"></path></g></svg>