<?xml version="1.0" standalone="no"?>
<svg xmlns="http://www.w3.org/2000/svg" width="24" height="24"><rect width="24" height="24" opacity="0"></rect><g><path d="M12 2.5Q14.57 2.5 16.75 3.78Q18.94 5.06 20.22 7.25Q21.5 9.43 21.5 12Q21.5 14.57 20.22 16.75Q18.94 18.94 16.75 20.22Q14.57 21.5 12 21.5Q9.43 21.5 7.25 20.22Q5.06 18.94 3.78 16.75Q2.5 14.57 2.5 12Q2.5 9.43 3.78 7.25Q5.06 5.06 7.25 3.78Q9.43 2.5 12 2.5ZM12 1.01Q9 1.01 6.48 2.48Q3.96 3.96 2.48 6.48Q1.01 9 1.01 12Q1.01 14.98 2.48 17.51Q3.96 20.04 6.49 21.52Q9.02 22.99 12 22.99Q14.98 22.99 17.51 21.52Q20.04 20.04 21.52 17.51Q22.99 14.98 22.99 12Q22.99 9 21.52 6.48Q20.04 3.96 17.52 2.48Q15 1.01 12 1.01Z" fill="rgba(0,0,0,0.9019607843137255)"></path><path d="M16.27 8.78Q16.49 8.54 16.49 8.24Q16.49 7.94 16.27 7.73Q16.06 7.49 15.74 7.49Q15.43 7.49 15.22 7.73L12 10.94L8.78 7.73Q8.57 7.49 8.26 7.49Q7.94 7.49 7.73 7.73Q7.51 7.94 7.51 8.24Q7.51 8.54 7.73 8.78L10.94 12L7.73 15.22Q7.51 15.43 7.51 15.74Q7.51 16.06 7.73 16.27Q7.92 16.49 8.27 16.49Q8.62 16.49 8.78 16.27L12 13.06L15.22 16.27Q15.41 16.49 15.76 16.49Q16.1 16.49 16.27 16.27Q16.49 16.06 16.49 15.74Q16.49 15.43 16.27 15.22L13.06 12L16.27 8.78Z" fill="rgba(0,0,0,0.9019607843137255)"></path></g></svg>